<svg width="16" height="16" viewBox="0 0 16 16" fill="none" xmlns="http://www.w3.org/2000/svg">
<g clip-path="url(#clip0_290_1092)">
<path d="M4.81889 3.75739C4.526 3.4645 4.05113 3.4645 3.75823 3.75739C3.46534 4.05029 3.46534 4.52516 3.75823 4.81805L6.94021 8.00003L3.75826 11.182C3.46537 11.4749 3.46537 11.9497 3.75826 12.2426C4.05116 12.5355 4.52603 12.5355 4.81892 12.2426L8.00087 9.06069L11.1829 12.2427C11.4757 12.5356 11.9506 12.5356 12.2435 12.2427C12.5364 11.9498 12.5364 11.4749 12.2435 11.182L9.06153 8.00003L12.2435 4.81802C12.5364 4.52512 12.5364 4.05025 12.2435 3.75736C11.9507 3.46446 11.4758 3.46446 11.1829 3.75736L8.00087 6.93937L4.81889 3.75739Z" fill="#EF5466"/>
</g>
<defs>
<clipPath id="clip0_290_1092">
<rect width="16" height="16" fill="white"/>
</clipPath>
</defs>
</svg>
