<svg width="18" height="20" viewBox="0 0 18 20" fill="none" xmlns="http://www.w3.org/2000/svg">
<path opacity="0.4" d="M13.191 0H4.81C1.77 0 0 1.78 0 4.83V15.16C0 18.26 1.77 20 4.81 20H13.191C16.28 20 18 18.26 18 15.16V4.83C18 1.78 16.28 0 13.191 0Z" fill="#8A92A6"/>
<path fill-rule="evenodd" clip-rule="evenodd" d="M5.08094 4.6499V4.6599C4.64994 4.6599 4.30094 5.0099 4.30094 5.4399C4.30094 5.8699 4.64994 6.2199 5.08094 6.2199H8.06994C8.50094 6.2199 8.85094 5.8699 8.85094 5.4289C8.85094 4.9999 8.50094 4.6499 8.06994 4.6499H5.08094ZM12.9209 10.7399H5.08094C4.64994 10.7399 4.30094 10.3899 4.30094 9.9599C4.30094 9.5299 4.64994 9.1789 5.08094 9.1789H12.9209C13.3509 9.1789 13.7009 9.5299 13.7009 9.9599C13.7009 10.3899 13.3509 10.7399 12.9209 10.7399ZM12.9209 15.3099H5.08094C4.78094 15.3499 4.49094 15.1999 4.33094 14.9499C4.17094 14.6899 4.17094 14.3599 4.33094 14.1099C4.49094 13.8499 4.78094 13.7099 5.08094 13.7399H12.9209C13.3199 13.7799 13.6209 14.1199 13.6209 14.5299C13.6209 14.9289 13.3199 15.2699 12.9209 15.3099Z" fill="#8A92A6"/>
</svg>
