<svg width="14" height="19" viewBox="0 0 14 19" fill="none" xmlns="http://www.w3.org/2000/svg">
<g clip-path="url(#clip0_291_816)">
<path d="M2.33333 0C1.04635 0 0 1.04635 0 2.33333V16.3333C0 17.6203 1.04635 18.6667 2.33333 18.6667H11.6667C12.9536 18.6667 14 17.6203 14 16.3333V5.83333H9.33333C8.68802 5.83333 8.16667 5.31198 8.16667 4.66667V0H2.33333ZM9.33333 0V4.66667H14L9.33333 0ZM7.875 8.45833V12.1807L9.00521 11.0505C9.34792 10.7078 9.90208 10.7078 10.2411 11.0505C10.5802 11.3932 10.5839 11.9474 10.2411 12.2865L7.61615 14.9115C7.27344 15.2542 6.71927 15.2542 6.38021 14.9115L3.75521 12.2865C3.4125 11.9437 3.4125 11.3896 3.75521 11.0505C4.09792 10.7115 4.65208 10.7078 4.99115 11.0505L6.12135 12.1807V8.45833C6.12135 7.97344 6.51146 7.58333 6.99635 7.58333C7.48125 7.58333 7.87135 7.97344 7.87135 8.45833H7.875Z" fill="#464F60"/>
</g>
<defs>
<clipPath id="clip0_291_816">
<rect width="14" height="18.6667" fill="white"/>
</clipPath>
</defs>
</svg>
