<svg width="16" height="19" viewBox="0 0 16 19" fill="none" xmlns="http://www.w3.org/2000/svg">
<path d="M7.83295 0.0167009C7.94366 -0.00556695 8.05793 -0.00556695 8.16864 0.0167009L15.3108 1.50122C15.7107 1.58287 16 1.95029 16 2.37338C16 2.79646 15.7107 3.16388 15.3108 3.24553L12.5718 3.81707V5.93622C12.5718 8.56011 10.5255 10.6867 8.00079 10.6867C5.47605 10.6867 3.42982 8.56011 3.42982 5.93622V3.81707L1.71571 3.46079V5.87684L2.27636 8.7865C2.3085 8.96093 2.26565 9.14279 2.15852 9.28011C2.05139 9.41742 1.88712 9.49907 1.71571 9.49907H0.572961C0.40155 9.49907 0.240852 9.42113 0.130148 9.28011C0.019445 9.13908 -0.0234078 8.96093 0.0123029 8.7865L0.572961 5.87684V3.21213C0.233709 3.08966 0.00158968 2.75564 0.00158968 2.37338C0.00158968 1.95029 0.290847 1.58287 0.690807 1.50122L7.83295 0.0167009ZM3.99762 12.1601C4.37258 12.0339 4.77611 12.1749 5.04752 12.4755L7.58298 15.2776C7.80796 15.5262 8.19006 15.5262 8.41504 15.2776L10.9505 12.4755C11.2219 12.1749 11.6254 12.0339 12.0004 12.1601C14.3216 12.9357 16 15.1922 16 17.8606C16 18.4916 15.5072 19 14.9037 19H1.09791C0.494398 19 0.00158968 18.4878 0.00158968 17.8606C0.00158968 15.1922 1.67999 12.9357 3.99762 12.1601Z" fill="white"/>
</svg>
