<svg width="24" height="24" viewBox="0 0 24 24" fill="none" xmlns="http://www.w3.org/2000/svg">
<path d="M4.92656 9.49683C5.2875 8.47495 5.87344 7.51401 6.69844 6.6937C9.62812 3.76401 14.3766 3.76401 17.3063 6.6937L18.1078 7.49995H15.75C14.9203 7.49995 14.25 8.17026 14.25 8.99995C14.25 9.82964 14.9203 10.5 15.75 10.5H21.7266H21.7453C22.575 10.5 23.2453 9.82964 23.2453 8.99995V2.99995C23.2453 2.17026 22.575 1.49995 21.7453 1.49995C20.9156 1.49995 20.2453 2.17026 20.2453 2.99995V5.39995L19.425 4.57495C15.3234 0.473389 8.67656 0.473389 4.575 4.57495C3.43125 5.7187 2.60625 7.06401 2.1 8.50308C1.82344 9.28589 2.23594 10.139 3.01406 10.4156C3.79219 10.6921 4.65 10.2796 4.92656 9.50151V9.49683ZM1.82812 13.5609C1.59375 13.6312 1.36875 13.7578 1.18594 13.9453C0.998437 14.1328 0.871875 14.3578 0.80625 14.6015C0.792188 14.6578 0.778125 14.7187 0.76875 14.7796C0.754687 14.8593 0.75 14.939 0.75 15.0187V21C0.75 21.8296 1.42031 22.5 2.25 22.5C3.07969 22.5 3.75 21.8296 3.75 21V18.6046L4.575 19.4249C8.67656 23.5218 15.3234 23.5218 19.4203 19.4249C20.5641 18.2812 21.3938 16.9359 21.9 15.5015C22.1766 14.7187 21.7641 13.8656 20.9859 13.589C20.2078 13.3125 19.35 13.725 19.0734 14.5031C18.7125 15.525 18.1266 16.4859 17.3016 17.3062C14.3719 20.2359 9.62344 20.2359 6.69375 17.3062L6.68906 17.3015L5.8875 16.5H8.25C9.07969 16.5 9.75 15.8296 9.75 15C9.75 14.1703 9.07969 13.5 8.25 13.5H2.26875C2.19375 13.5 2.11875 13.5046 2.04375 13.514C1.96875 13.5234 1.89844 13.5375 1.82812 13.5609Z" fill="#868FA0"/>
</svg>
